<mxfile host="app.diagrams.net" modified="2022-03-02T09:32:35.487Z" agent="5.0 (Windows NT 10.0; Win64; x64) AppleWebKit/537.36 (KHTML, like Gecko) Chrome/98.0.4758.105 Safari/537.36" etag="AaXt1QhMI-cDvhmiOiNe" version="16.6.4" type="github">
  <diagram id="m21GWgyEz2yMnaygu3Ss" name="Page-1">
    <mxGraphModel dx="1243" dy="671" grid="1" gridSize="10" guides="1" tooltips="1" connect="1" arrows="1" fold="1" page="1" pageScale="1" pageWidth="827" pageHeight="1169" math="0" shadow="0">
      <root>
        <mxCell id="0" />
        <mxCell id="1" parent="0" />
        <mxCell id="a2fzMskZ-pdbe8ppXPyE-6" style="edgeStyle=orthogonalEdgeStyle;rounded=0;orthogonalLoop=1;jettySize=auto;html=1;" edge="1" parent="1" source="a2fzMskZ-pdbe8ppXPyE-1" target="a2fzMskZ-pdbe8ppXPyE-5">
          <mxGeometry relative="1" as="geometry" />
        </mxCell>
        <mxCell id="a2fzMskZ-pdbe8ppXPyE-1" value="Начало" style="rounded=1;whiteSpace=wrap;html=1;" vertex="1" parent="1">
          <mxGeometry x="354" y="20" width="120" height="60" as="geometry" />
        </mxCell>
        <mxCell id="a2fzMskZ-pdbe8ppXPyE-2" value="Конец" style="rounded=1;whiteSpace=wrap;html=1;" vertex="1" parent="1">
          <mxGeometry x="364" y="1089" width="120" height="60" as="geometry" />
        </mxCell>
        <mxCell id="a2fzMskZ-pdbe8ppXPyE-9" style="edgeStyle=orthogonalEdgeStyle;rounded=0;orthogonalLoop=1;jettySize=auto;html=1;entryX=0.5;entryY=0;entryDx=0;entryDy=0;" edge="1" parent="1" source="a2fzMskZ-pdbe8ppXPyE-3" target="a2fzMskZ-pdbe8ppXPyE-8">
          <mxGeometry relative="1" as="geometry" />
        </mxCell>
        <mxCell id="a2fzMskZ-pdbe8ppXPyE-3" value="Инициализация массива Array" style="rounded=0;whiteSpace=wrap;html=1;" vertex="1" parent="1">
          <mxGeometry x="354" y="180" width="120" height="60" as="geometry" />
        </mxCell>
        <mxCell id="a2fzMskZ-pdbe8ppXPyE-7" style="edgeStyle=orthogonalEdgeStyle;rounded=0;orthogonalLoop=1;jettySize=auto;html=1;entryX=0.5;entryY=0;entryDx=0;entryDy=0;" edge="1" parent="1" source="a2fzMskZ-pdbe8ppXPyE-5" target="a2fzMskZ-pdbe8ppXPyE-3">
          <mxGeometry relative="1" as="geometry" />
        </mxCell>
        <mxCell id="a2fzMskZ-pdbe8ppXPyE-5" value="Ввод int N" style="shape=parallelogram;perimeter=parallelogramPerimeter;whiteSpace=wrap;html=1;fixedSize=1;" vertex="1" parent="1">
          <mxGeometry x="354" y="100" width="120" height="60" as="geometry" />
        </mxCell>
        <mxCell id="a2fzMskZ-pdbe8ppXPyE-12" style="edgeStyle=orthogonalEdgeStyle;rounded=0;orthogonalLoop=1;jettySize=auto;html=1;entryX=0.5;entryY=0;entryDx=0;entryDy=0;" edge="1" parent="1" source="a2fzMskZ-pdbe8ppXPyE-8" target="a2fzMskZ-pdbe8ppXPyE-11">
          <mxGeometry relative="1" as="geometry" />
        </mxCell>
        <mxCell id="a2fzMskZ-pdbe8ppXPyE-15" style="edgeStyle=orthogonalEdgeStyle;rounded=0;orthogonalLoop=1;jettySize=auto;html=1;entryX=0.5;entryY=0;entryDx=0;entryDy=0;" edge="1" parent="1" source="a2fzMskZ-pdbe8ppXPyE-8" target="a2fzMskZ-pdbe8ppXPyE-14">
          <mxGeometry relative="1" as="geometry">
            <Array as="points">
              <mxPoint x="530" y="285" />
              <mxPoint x="530" y="430" />
              <mxPoint x="414" y="430" />
            </Array>
          </mxGeometry>
        </mxCell>
        <mxCell id="a2fzMskZ-pdbe8ppXPyE-8" value="int i = 0; i&amp;lt;N;I++" style="shape=hexagon;perimeter=hexagonPerimeter2;whiteSpace=wrap;html=1;fixedSize=1;" vertex="1" parent="1">
          <mxGeometry x="354" y="260" width="120" height="50" as="geometry" />
        </mxCell>
        <mxCell id="a2fzMskZ-pdbe8ppXPyE-13" style="edgeStyle=orthogonalEdgeStyle;rounded=0;orthogonalLoop=1;jettySize=auto;html=1;entryX=0;entryY=0.5;entryDx=0;entryDy=0;" edge="1" parent="1" source="a2fzMskZ-pdbe8ppXPyE-11" target="a2fzMskZ-pdbe8ppXPyE-8">
          <mxGeometry relative="1" as="geometry">
            <Array as="points">
              <mxPoint x="414" y="410" />
              <mxPoint x="334" y="410" />
              <mxPoint x="334" y="285" />
            </Array>
          </mxGeometry>
        </mxCell>
        <mxCell id="a2fzMskZ-pdbe8ppXPyE-11" value="Ввод Array[i]" style="shape=parallelogram;perimeter=parallelogramPerimeter;whiteSpace=wrap;html=1;fixedSize=1;" vertex="1" parent="1">
          <mxGeometry x="354" y="330" width="120" height="60" as="geometry" />
        </mxCell>
        <mxCell id="a2fzMskZ-pdbe8ppXPyE-14" value="Int FirstCount = 0&lt;br&gt;Int SecondCount = 0" style="rounded=0;whiteSpace=wrap;html=1;" vertex="1" parent="1">
          <mxGeometry x="354" y="450" width="120" height="60" as="geometry" />
        </mxCell>
        <mxCell id="a2fzMskZ-pdbe8ppXPyE-18" style="edgeStyle=orthogonalEdgeStyle;rounded=0;orthogonalLoop=1;jettySize=auto;html=1;entryX=0.5;entryY=0;entryDx=0;entryDy=0;" edge="1" parent="1" source="a2fzMskZ-pdbe8ppXPyE-16" target="a2fzMskZ-pdbe8ppXPyE-17">
          <mxGeometry relative="1" as="geometry" />
        </mxCell>
        <mxCell id="a2fzMskZ-pdbe8ppXPyE-37" style="edgeStyle=orthogonalEdgeStyle;rounded=0;orthogonalLoop=1;jettySize=auto;html=1;entryX=0.5;entryY=0;entryDx=0;entryDy=0;fontSize=13;" edge="1" parent="1" source="a2fzMskZ-pdbe8ppXPyE-16" target="a2fzMskZ-pdbe8ppXPyE-36">
          <mxGeometry relative="1" as="geometry">
            <Array as="points">
              <mxPoint x="650" y="560" />
              <mxPoint x="650" y="910" />
              <mxPoint x="424" y="910" />
            </Array>
          </mxGeometry>
        </mxCell>
        <mxCell id="a2fzMskZ-pdbe8ppXPyE-16" value="int i = 0; i&amp;lt;N; i++" style="shape=hexagon;perimeter=hexagonPerimeter2;whiteSpace=wrap;html=1;fixedSize=1;" vertex="1" parent="1">
          <mxGeometry x="354" y="525" width="120" height="65" as="geometry" />
        </mxCell>
        <mxCell id="a2fzMskZ-pdbe8ppXPyE-20" style="edgeStyle=orthogonalEdgeStyle;rounded=0;orthogonalLoop=1;jettySize=auto;html=1;" edge="1" parent="1" source="a2fzMskZ-pdbe8ppXPyE-17" target="a2fzMskZ-pdbe8ppXPyE-19">
          <mxGeometry relative="1" as="geometry">
            <Array as="points">
              <mxPoint x="510" y="665" />
            </Array>
          </mxGeometry>
        </mxCell>
        <mxCell id="a2fzMskZ-pdbe8ppXPyE-22" style="edgeStyle=orthogonalEdgeStyle;rounded=0;orthogonalLoop=1;jettySize=auto;html=1;entryX=0.5;entryY=0;entryDx=0;entryDy=0;" edge="1" parent="1" source="a2fzMskZ-pdbe8ppXPyE-17" target="a2fzMskZ-pdbe8ppXPyE-21">
          <mxGeometry relative="1" as="geometry">
            <Array as="points">
              <mxPoint x="285" y="665" />
            </Array>
          </mxGeometry>
        </mxCell>
        <mxCell id="a2fzMskZ-pdbe8ppXPyE-17" value="(Array[i]%Array[0])==0" style="rhombus;whiteSpace=wrap;html=1;" vertex="1" parent="1">
          <mxGeometry x="344" y="620" width="140" height="90" as="geometry" />
        </mxCell>
        <mxCell id="a2fzMskZ-pdbe8ppXPyE-32" style="edgeStyle=orthogonalEdgeStyle;rounded=0;orthogonalLoop=1;jettySize=auto;html=1;fontSize=16;" edge="1" parent="1" source="a2fzMskZ-pdbe8ppXPyE-19">
          <mxGeometry relative="1" as="geometry">
            <mxPoint x="290" y="730" as="targetPoint" />
          </mxGeometry>
        </mxCell>
        <mxCell id="a2fzMskZ-pdbe8ppXPyE-19" value="FirstCount++" style="rounded=0;whiteSpace=wrap;html=1;" vertex="1" parent="1">
          <mxGeometry x="450" y="710" width="120" height="40" as="geometry" />
        </mxCell>
        <mxCell id="a2fzMskZ-pdbe8ppXPyE-24" style="edgeStyle=orthogonalEdgeStyle;rounded=0;orthogonalLoop=1;jettySize=auto;html=1;entryX=0.5;entryY=0;entryDx=0;entryDy=0;" edge="1" parent="1" source="a2fzMskZ-pdbe8ppXPyE-21" target="a2fzMskZ-pdbe8ppXPyE-23">
          <mxGeometry relative="1" as="geometry">
            <Array as="points">
              <mxPoint x="404" y="785" />
            </Array>
          </mxGeometry>
        </mxCell>
        <mxCell id="a2fzMskZ-pdbe8ppXPyE-33" style="edgeStyle=orthogonalEdgeStyle;rounded=0;orthogonalLoop=1;jettySize=auto;html=1;entryX=0;entryY=0.5;entryDx=0;entryDy=0;fontSize=16;" edge="1" parent="1" target="a2fzMskZ-pdbe8ppXPyE-16">
          <mxGeometry relative="1" as="geometry">
            <mxPoint x="210" y="790" as="sourcePoint" />
            <Array as="points">
              <mxPoint x="274" y="785" />
              <mxPoint x="160" y="785" />
              <mxPoint x="160" y="558" />
            </Array>
          </mxGeometry>
        </mxCell>
        <mxCell id="a2fzMskZ-pdbe8ppXPyE-21" value="&lt;span&gt;(Array[i]%Array[N-1])==0&lt;/span&gt;" style="rhombus;whiteSpace=wrap;html=1;" vertex="1" parent="1">
          <mxGeometry x="200" y="740" width="170" height="90" as="geometry" />
        </mxCell>
        <mxCell id="a2fzMskZ-pdbe8ppXPyE-34" style="edgeStyle=orthogonalEdgeStyle;rounded=0;orthogonalLoop=1;jettySize=auto;html=1;fontSize=16;" edge="1" parent="1" source="a2fzMskZ-pdbe8ppXPyE-23">
          <mxGeometry relative="1" as="geometry">
            <mxPoint x="160" y="760" as="targetPoint" />
          </mxGeometry>
        </mxCell>
        <mxCell id="a2fzMskZ-pdbe8ppXPyE-23" value="SecondCount++" style="rounded=0;whiteSpace=wrap;html=1;" vertex="1" parent="1">
          <mxGeometry x="344" y="850" width="120" height="40" as="geometry" />
        </mxCell>
        <mxCell id="a2fzMskZ-pdbe8ppXPyE-25" value="True" style="text;strokeColor=none;fillColor=none;html=1;fontSize=16;fontStyle=1;verticalAlign=middle;align=center;" vertex="1" parent="1">
          <mxGeometry x="450" y="620" width="100" height="40" as="geometry" />
        </mxCell>
        <mxCell id="a2fzMskZ-pdbe8ppXPyE-26" value="True" style="text;strokeColor=none;fillColor=none;html=1;fontSize=16;fontStyle=1;verticalAlign=middle;align=center;" vertex="1" parent="1">
          <mxGeometry x="330" y="750" width="100" height="40" as="geometry" />
        </mxCell>
        <mxCell id="a2fzMskZ-pdbe8ppXPyE-31" value="&lt;font style=&quot;font-size: 16px&quot;&gt;False&lt;/font&gt;" style="text;strokeColor=none;fillColor=none;html=1;fontSize=24;fontStyle=1;verticalAlign=middle;align=center;" vertex="1" parent="1">
          <mxGeometry x="270" y="630" width="100" height="40" as="geometry" />
        </mxCell>
        <mxCell id="a2fzMskZ-pdbe8ppXPyE-35" value="&lt;font style=&quot;font-size: 16px&quot;&gt;False&lt;/font&gt;" style="text;strokeColor=none;fillColor=none;html=1;fontSize=24;fontStyle=1;verticalAlign=middle;align=center;" vertex="1" parent="1">
          <mxGeometry x="140" y="780" width="100" height="40" as="geometry" />
        </mxCell>
        <mxCell id="a2fzMskZ-pdbe8ppXPyE-40" style="edgeStyle=orthogonalEdgeStyle;rounded=0;orthogonalLoop=1;jettySize=auto;html=1;entryX=0.5;entryY=0;entryDx=0;entryDy=0;fontSize=13;" edge="1" parent="1" source="a2fzMskZ-pdbe8ppXPyE-36" target="a2fzMskZ-pdbe8ppXPyE-39">
          <mxGeometry relative="1" as="geometry">
            <Array as="points">
              <mxPoint x="255" y="970" />
            </Array>
          </mxGeometry>
        </mxCell>
        <mxCell id="a2fzMskZ-pdbe8ppXPyE-41" style="edgeStyle=orthogonalEdgeStyle;rounded=0;orthogonalLoop=1;jettySize=auto;html=1;entryX=0.5;entryY=0;entryDx=0;entryDy=0;fontSize=13;" edge="1" parent="1" source="a2fzMskZ-pdbe8ppXPyE-36" target="a2fzMskZ-pdbe8ppXPyE-38">
          <mxGeometry relative="1" as="geometry">
            <Array as="points">
              <mxPoint x="585" y="970" />
            </Array>
          </mxGeometry>
        </mxCell>
        <mxCell id="a2fzMskZ-pdbe8ppXPyE-36" value="&lt;span style=&quot;font-size: 13px&quot;&gt;FirstCount&amp;gt;SecondCount&lt;/span&gt;" style="rhombus;whiteSpace=wrap;html=1;fontSize=16;" vertex="1" parent="1">
          <mxGeometry x="321" y="930" width="206" height="80" as="geometry" />
        </mxCell>
        <mxCell id="a2fzMskZ-pdbe8ppXPyE-42" style="edgeStyle=orthogonalEdgeStyle;rounded=0;orthogonalLoop=1;jettySize=auto;html=1;entryX=0.5;entryY=0;entryDx=0;entryDy=0;fontSize=13;" edge="1" parent="1" source="a2fzMskZ-pdbe8ppXPyE-38" target="a2fzMskZ-pdbe8ppXPyE-2">
          <mxGeometry relative="1" as="geometry">
            <Array as="points">
              <mxPoint x="585" y="1070" />
              <mxPoint x="424" y="1070" />
            </Array>
          </mxGeometry>
        </mxCell>
        <mxCell id="a2fzMskZ-pdbe8ppXPyE-38" value="Вывод FirstCount" style="shape=parallelogram;perimeter=parallelogramPerimeter;whiteSpace=wrap;html=1;fixedSize=1;fontSize=13;" vertex="1" parent="1">
          <mxGeometry x="510" y="1010" width="150" height="40" as="geometry" />
        </mxCell>
        <mxCell id="a2fzMskZ-pdbe8ppXPyE-43" style="edgeStyle=orthogonalEdgeStyle;rounded=0;orthogonalLoop=1;jettySize=auto;html=1;entryX=0.5;entryY=0;entryDx=0;entryDy=0;fontSize=13;" edge="1" parent="1" source="a2fzMskZ-pdbe8ppXPyE-39" target="a2fzMskZ-pdbe8ppXPyE-2">
          <mxGeometry relative="1" as="geometry">
            <Array as="points">
              <mxPoint x="255" y="1070" />
              <mxPoint x="424" y="1070" />
            </Array>
          </mxGeometry>
        </mxCell>
        <mxCell id="a2fzMskZ-pdbe8ppXPyE-39" value="Вывод SecondCount" style="shape=parallelogram;perimeter=parallelogramPerimeter;whiteSpace=wrap;html=1;fixedSize=1;fontSize=13;" vertex="1" parent="1">
          <mxGeometry x="180" y="1010" width="150" height="40" as="geometry" />
        </mxCell>
      </root>
    </mxGraphModel>
  </diagram>
</mxfile>
